<svg width="21" height="15" viewBox="0 0 21 15" fill="none" xmlns="http://www.w3.org/2000/svg">
<path d="M5.724 11.7764C5.47924 11.7768 5.2429 11.6871 5.06 11.5244L0 7.0264L5.341 2.2784C5.54008 2.10809 5.79804 2.02271 6.05942 2.04062C6.32079 2.05853 6.5647 2.1783 6.73869 2.37417C6.91268 2.57004 7.00285 2.82636 6.98982 3.08803C6.97679 3.34969 6.86159 3.59579 6.669 3.7734L3.01 7.0264L6.388 10.0284C6.53976 10.1631 6.64697 10.3407 6.6954 10.5377C6.74383 10.7347 6.73117 10.9418 6.65913 11.1315C6.58708 11.3212 6.45904 11.4844 6.29202 11.5996C6.125 11.7148 5.92689 11.7765 5.724 11.7764ZM14.669 11.7744L20.01 7.0264L14.95 2.5284C14.7518 2.3523 14.4917 2.26216 14.227 2.27782C13.9622 2.29348 13.7146 2.41365 13.5385 2.6119C13.3624 2.81015 13.2723 3.07024 13.2879 3.33494C13.3036 3.59965 13.4238 3.8473 13.622 4.0234L17 7.0264L13.341 10.2784C13.1426 10.4545 13.0223 10.7022 13.0066 10.967C12.9908 11.2318 13.0809 11.492 13.257 11.6904C13.4331 11.8888 13.6808 12.0091 13.9456 12.0248C14.2104 12.0406 14.4706 11.9505 14.669 11.7744ZM9.991 13.1914L11.991 1.1914C12.0166 1.06025 12.0156 0.925311 11.9882 0.794544C11.9607 0.663777 11.9073 0.539838 11.8312 0.430048C11.755 0.320258 11.6576 0.226843 11.5448 0.155321C11.4319 0.0837993 11.3058 0.0356214 11.174 0.0136332C11.0423 -0.00835504 10.9074 -0.00370773 10.7774 0.0273008C10.6474 0.0583092 10.525 0.11505 10.4173 0.194171C10.3097 0.273293 10.2189 0.37319 10.1505 0.487962C10.0821 0.602734 10.0374 0.730054 10.019 0.8624L8.019 12.8624C7.99343 12.9935 7.99439 13.1285 8.02185 13.2593C8.0493 13.39 8.10268 13.514 8.17883 13.6238C8.25499 13.7335 8.35238 13.827 8.46524 13.8985C8.5781 13.97 8.70416 14.0182 8.83595 14.0402C8.96775 14.0622 9.10261 14.0575 9.23258 14.0265C9.36255 13.9955 9.48499 13.9387 9.59266 13.8596C9.70033 13.7805 9.79106 13.6806 9.85948 13.5658C9.92789 13.4511 9.97261 13.3237 9.991 13.1914Z" fill="#0C0C0C"/>
</svg>
